<?xml version="1.0" encoding="utf-8"?>
<!-- Generator: Adobe Illustrator 22.0.1, SVG Export Plug-In . SVG Version: 6.00 Build 0)  -->
<svg version="1.1" id="Capa_1" xmlns="http://www.w3.org/2000/svg" xmlns:xlink="http://www.w3.org/1999/xlink" x="0px" y="0px"
	 viewBox="0 0 30.7 30.7" style="enable-background:new 0 0 30.7 30.7;" xml:space="preserve">
<style type="text/css">
	.st0{fill:#FFFFFF;}
</style>
<g>
	<path class="st0" d="M30.7,14.9c0,8.2-6.7,14.9-15.1,14.9c-2.6,0-5.1-0.7-7.3-1.9L0,30.7l2.7-8c-1.4-2.3-2.2-4.9-2.2-7.7
		C0.6,6.7,7.3,0,15.6,0C23.9,0,30.7,6.7,30.7,14.9z M15.6,2.4C8.6,2.4,3,8,3,14.9c0,2.7,0.9,5.3,2.4,7.4L3.8,27l4.9-1.5
		c2,1.3,4.4,2.1,7,2.1c7,0,12.7-5.6,12.7-12.6C28.3,8,22.6,2.4,15.6,2.4z M23.2,18.4c-0.1-0.2-0.3-0.2-0.7-0.4
		c-0.4-0.2-2.2-1.1-2.5-1.2c-0.3-0.1-0.6-0.2-0.8,0.2c-0.2,0.4-1,1.2-1.2,1.4c-0.2,0.2-0.4,0.3-0.8,0.1c-0.4-0.2-1.6-0.6-3-1.8
		c-1.1-1-1.8-2.2-2.1-2.5c-0.2-0.4,0-0.6,0.2-0.7c0.2-0.2,0.4-0.4,0.6-0.6c0.2-0.2,0.2-0.4,0.4-0.6c0.1-0.2,0.1-0.5,0-0.6
		c-0.1-0.2-0.8-2-1.1-2.7c-0.3-0.7-0.6-0.6-0.8-0.6c-0.2,0-0.5,0-0.7,0s-0.6,0.1-1,0.5s-1.3,1.3-1.3,3.1c0,1.8,1.3,3.5,1.5,3.8
		c0.2,0.2,2.6,4.1,6.3,5.5c3.8,1.5,3.8,1,4.4,0.9c0.7-0.1,2.2-0.9,2.5-1.7C23.3,19.3,23.3,18.5,23.2,18.4z"/>
</g>
</svg>
